<svg class="svg-icon" class="bi bi-lightning" fill="currentColor" style="width: 1em; height: 1em; vertical-align: middle; overflow: hidden;" viewBox="0 0 1024 1024" version="1.1" xmlns="http://www.w3.org/2000/svg">
<path d="M189.062 702.158c-4.942 0-9.929-0.214-14.823-0.636-42.523-3.653-81.937-23.005-110.977-54.49-29.215-31.675-45.304-72.864-45.304-115.979 0-94.346 76.757-171.102 171.104-171.102 3.462 0 6.969 0.105 10.421 0.313 11.026 0.662 19.428 10.136 18.766 21.162-0.662 11.025-10.129 19.444-21.162 18.766-2.658-0.159-5.358-0.24-8.025-0.24-72.291 0-131.104 58.812-131.104 131.102 0 67.477 52.583 124.851 119.709 130.617 3.762 0.324 7.594 0.488 11.395 0.488 11.046 0 20 8.954 20 20s-8.954 19.999-20 19.999z"  /><path d="M198.201 396.705c-10.337 0-19.096-7.958-19.917-18.439a170.217 170.217 0 0 1-0.517-13.241c0-92.289 75.083-167.372 167.373-167.372 2.696 0 5.439-0.017 8.214-0.034 26.798-0.167 57.172-0.351 81.22 13.452 9.58 5.499 12.888 17.722 7.39 27.302-5.499 9.58-17.723 12.888-27.302 7.39-14.684-8.428-39.319-8.279-61.062-8.144-2.858 0.018-5.684 0.035-8.46 0.035-70.234 0-127.373 57.139-127.373 127.372 0 3.371 0.133 6.775 0.395 10.118 0.862 11.012-7.365 20.638-18.377 21.5-0.531 0.041-1.06 0.061-1.584 0.061z"  /><path d="M809.567 298.162c-0.442 0-0.883-0.015-1.318-0.045-10.376-0.711-18.397-9.159-18.658-19.65-2.398-97.156-79.901-173.26-176.442-173.26-52.249 0-143.18 15.158-165.136 116.674-1.63 7.539-4.721 13.085-9.226 16.586-3.653 4.796-9.425 7.891-15.919 7.891-11.046 0-20-8.954-20-20 0-4.476 0-15.092 8.041-21.354 22.908-88.983 96.126-139.798 202.24-139.798 57.163 0 111.002 22.036 151.598 62.047 36.839 36.309 59.23 83.873 63.96 135.234a20.469 20.469 0 0 1 2.185 9.264c0 1.903-0.266 3.744-0.763 5.488-0.033 0.207-0.067 0.421-0.103 0.637-0.161 0.986-0.327 1.993-0.465 2.752-2.215 12.211-11.659 17.534-19.994 17.534z"  /><path d="M800.007 703.405c-11.046 0-20-8.954-20-20s8.954-20 20-20c2.541 0 5.127-0.054 7.687-0.159 97.971-4.052 174.718-84.104 174.718-182.249 0-97.376-76.111-177.398-173.274-182.179-12.935-0.635-19.742-10.973-19.579-20.376 0.158-9.136 7.138-19.142 19.762-19.691 0.498-0.021 1.188-0.042 1.962-0.06 1.232-0.028 2.718-0.05 3.792-0.066 0.364-0.02 0.732-0.03 1.102-0.03 2.672 0 5.121 0.44 7.326 1.226 52.331 5.492 100.73 29.223 137.387 67.616 39.674 41.554 61.523 96.089 61.523 153.56 0 57.779-22.052 112.527-62.094 154.159-39.926 41.512-93.543 65.681-150.975 68.056-3.111 0.129-6.25 0.193-9.337 0.193zM664.146 929.743H328.344c-28.845 0-52.312-23.467-52.312-52.312v-462.66c0-28.844 23.467-52.311 52.312-52.311h335.802c28.845 0 52.312 23.467 52.312 52.311v462.661c-0.001 28.844-23.468 52.311-52.312 52.311zM328.344 392.46c-12.303 0-22.312 10.009-22.312 22.311v462.661c0 12.303 10.009 22.312 22.312 22.312h335.802c12.303 0 22.312-10.009 22.312-22.312V414.771c0-12.302-10.009-22.311-22.312-22.311H328.344z"  /><path d="M351.358 442.132m-22.386 0a22.386 22.386 0 1 0 44.772 0 22.386 22.386 0 1 0-44.772 0Z"  /><path d="M637.412 442.132m-22.386 0a22.386 22.386 0 1 0 44.772 0 22.386 22.386 0 1 0-44.772 0Z"  /><path d="M351.358 776.691m-22.386 0a22.386 22.386 0 1 0 44.772 0 22.386 22.386 0 1 0-44.772 0Z"  /><path d="M637.412 776.691m-22.386 0a22.386 22.386 0 1 0 44.772 0 22.386 22.386 0 1 0-44.772 0Z"  /><path d="M414.784 526.079h156.7V686.51h-156.7zM429.708 475.71h37.31v37.31h-37.31zM477.59 475.71h37.31v37.31h-37.31zM525.474 475.71h37.31v37.31h-37.31zM429.708 705.797h37.31v37.311h-37.31zM477.59 705.797h37.31v37.311h-37.31zM525.474 705.797h37.31v37.311h-37.31zM361.924 636.771h37.311v37.311h-37.311zM361.924 588.888h37.311v37.311h-37.311zM361.924 541.005h37.311v37.309h-37.311zM590.768 636.771h37.311v37.311h-37.311zM590.768 588.888h37.311v37.311h-37.311zM590.768 541.005h37.311v37.309h-37.311z"  /><path d="M302.855 825.748h388.019v20H302.855z"  /><path d="M390.533 837.613v65.291M380.533 837.613h20v65.291h-20z"  /><path d="M443.08 837.613v65.291M433.08 837.613h20v65.291h-20z"  /><path d="M495.627 837.613v65.291M485.627 837.613h20v65.291h-20z"  /><path d="M548.174 837.613v65.291M538.174 837.613h20v65.291h-20z"  /><path d="M600.721 837.613v65.291M590.721 837.613h20v65.291h-20z"  /></svg>