<svg xmlns="http://www.w3.org/2000/svg" preserveAspectRatio="none" viewBox="0 0 1440 320">
      <path fill-opacity="1"
            d="M0,160L20,154.7C40,149,80,139,120,117.3C160,96,200,64,240,53.3C280,43,320,53,360,69.3C400,85,440,107,480,133.3C520,160,560,192,600,176C640,160,680,96,720,112C760,128,800,224,840,250.7C880,277,920,235,960,197.3C1000,160,1040,128,1080,128C1120,128,1160,160,1200,176C1240,192,1280,192,1320,170.7C1360,149,1400,107,1420,85.3L1440,64L1440,320L1420,320C1400,320,1360,320,1320,320C1280,320,1240,320,1200,320C1160,320,1120,320,1080,320C1040,320,1000,320,960,320C920,320,880,320,840,320C800,320,760,320,720,320C680,320,640,320,600,320C560,320,520,320,480,320C440,320,400,320,360,320C320,320,280,320,240,320C200,320,160,320,120,320C80,320,40,320,20,320L0,320Z">
      </path>
</svg>